HIERARCHY
ROOT Hips
{
	OFFSET 0.000000 8.830580 0.000000
	CHANNELS 6 Xposition Yposition Zposition Zrotation Yrotation Xrotation 
	JOINT Spine
	{
		OFFSET 0.000000 0.010000 0.000000
		CHANNELS 3 Zrotation Yrotation Xrotation
		JOINT Spine1
		{
			OFFSET 0.000000 2.459130 0.000000
			CHANNELS 3 Zrotation Yrotation Xrotation
			JOINT Neck
			{
				OFFSET 0.000000 2.484630 0.000000
				CHANNELS 3 Zrotation Yrotation Xrotation
				JOINT Head_virtual
				{
					OFFSET 0.000000 0.000000 0.000000
					CHANNELS 3 Zrotation Yrotation Xrotation
					JOINT Head
					{
						OFFSET 0.000000 0.927525 0.000000
						CHANNELS 3 Zrotation Yrotation Xrotation
						End Site
						{
							OFFSET 0.000000 0.000000 0.000000
						}
					}
				}
				JOINT LeftUpArm_virtual
				{
					OFFSET 0.000000 0.000000 0.000000
					CHANNELS 3 Zrotation Yrotation Xrotation
					JOINT LeftUpArm
					{
						OFFSET 1.248820 0.000000 0.000000
						CHANNELS 3 Zrotation Yrotation Xrotation
						JOINT LeftForeArm
						{
							OFFSET 2.597580 0.000000 0.000000
							CHANNELS 3 Zrotation Yrotation Xrotation
							JOINT LeftHand
							{
								OFFSET 2.455420 0.000000 0.000000
								CHANNELS 3 Zrotation Yrotation Xrotation
								End Site
								{
									OFFSET 0.000000 0.000000 0.000000
								}
							}
						}
					}
				}
				JOINT RightUpArm_virtual
				{
					OFFSET -0.000000 -0.000000 -0.000000
					CHANNELS 3 Zrotation Yrotation Xrotation
					JOINT RightUpArm
					{
						OFFSET -1.248820 -0.000000 -0.000000
						CHANNELS 3 Zrotation Yrotation Xrotation
						JOINT RightForeArm
						{
							OFFSET -2.597580 -0.000000 -0.000000
							CHANNELS 3 Zrotation Yrotation Xrotation
							JOINT RightHand
							{
								OFFSET -2.455420 -0.000000 -0.000000
								CHANNELS 3 Zrotation Yrotation Xrotation
								End Site
								{
									OFFSET 0.000000 0.000000 0.000000
								}
							}
						}
					}
				}
			}
		}
	}
	JOINT LeftUpLeg
	{
		OFFSET 1.271939 0.000000 0.000000
		CHANNELS 3 Zrotation Yrotation Xrotation
		JOINT LeftLowLeg
		{
			OFFSET 0.000000 -4.342910 0.000000
			CHANNELS 3 Zrotation Yrotation Xrotation
			JOINT LeftFoot
			{
				OFFSET 0.000000 -4.487670 0.000000
				CHANNELS 3 Zrotation Yrotation Xrotation
				JOINT LeftToeBase
				{
					OFFSET 0.000000 0.000000 1.515070
					CHANNELS 3 Zrotation Yrotation Xrotation
					End Site
					{
						OFFSET 0.000000 0.000000 0.000000
					}
				}
			}
		}
	}
	JOINT RightUpLeg
	{
		OFFSET -1.271939 0.000000 0.000000
		CHANNELS 3 Zrotation Yrotation Xrotation
		JOINT RightLowLeg
		{
			OFFSET 0.000000 -4.342910 0.000000
			CHANNELS 3 Zrotation Yrotation Xrotation
			JOINT RightFoot
			{
				OFFSET 0.000000 -4.487670 0.000000
				CHANNELS 3 Zrotation Yrotation Xrotation
				JOINT RightToeBase
				{
					OFFSET 0.000000 0.000000 1.515070
					CHANNELS 3 Zrotation Yrotation Xrotation
					End Site
					{
						OFFSET 0.000000 0.000000 0.000000
					}
				}
			}
		}
	}
}
MOTION
Frames: 14
Frame Time: 0.041667
-15.575766 9.441300 37.921671 -173.748785 -33.906347 173.674944 4.624688 8.056703 -15.305712 -9.135763 -6.075011 27.686501 0.000000 0.000000 0.000000 33.708373 21.598234 7.627045 22.513549 -24.601442 -81.901590 -26.005100 3.124090 -10.621300 -29.582199 2.508520 30.776199 0.000000 -30.333500 0.000000 6.501680 7.524820 8.650730 21.873600 3.131060 -3.688220 14.148400 27.091999 -4.982000 0.000000 44.927101 0.000000 -6.240560 -16.646299 -31.078699 13.985105 -12.981180 -4.496849 0.000000 0.000000 22.904499 -12.584449 0.439834 12.007849 0.000000 0.000000 -20.032180 11.135227 10.402540 4.384229 0.000000 0.000000 6.037040 13.228652 -23.619437 10.684978 0.000000 0.000000 -12.926390 
-15.566121 9.447090 37.963991 -173.960169 -34.108172 173.965935 5.225044 8.563828 -14.782407 -10.216618 -6.343001 27.378595 0.000000 0.000000 0.000000 35.086991 21.370491 8.571528 22.353009 -24.046417 -81.701857 -25.681299 3.219870 -10.048900 -29.449699 2.537040 30.339500 0.000000 -30.248400 0.000000 6.301180 7.691890 8.984530 21.000601 3.338210 -4.267350 11.572900 28.361300 -8.116300 0.000000 41.706501 0.000000 -4.330450 -15.016100 -26.562799 13.782371 -12.782024 -5.159174 0.000000 0.000000 23.181900 -12.515686 0.443197 12.482799 0.000000 0.000000 -20.252270 10.779981 10.338149 4.012321 0.000000 0.000000 5.965660 13.256213 -23.649507 10.792369 0.000000 0.000000 -12.899830 
-15.556526 9.454663 38.007483 -174.269428 -34.239775 174.352969 5.874379 9.235700 -14.154441 -11.580354 -6.613903 26.889599 0.000000 0.000000 0.000000 36.918910 21.069280 9.887077 22.001310 -23.405403 -81.151404 -25.243200 3.411760 -9.442250 -29.275999 2.552310 30.033800 0.000000 -30.295401 0.000000 6.362710 7.879920 9.827670 20.309099 3.306870 -4.700020 9.259240 29.440800 -10.967400 0.000000 39.879601 0.000000 -2.696080 -14.396000 -24.166300 13.514428 -12.341689 -5.803113 0.000000 0.000000 23.356800 -12.443580 0.333613 13.114056 0.000000 0.000000 -20.577810 10.335688 10.232212 3.589592 0.000000 0.000000 5.906990 13.221126 -23.615633 10.929611 0.000000 0.000000 -12.881400 
-15.547548 9.463810 38.051621 -174.612753 -34.296062 174.754700 6.540429 9.961527 -13.436069 -12.996420 -6.891952 26.281569 0.000000 0.000000 0.000000 39.077425 20.615006 11.471018 21.436038 -22.772594 -80.309264 -24.788099 3.622480 -9.031450 -29.118601 2.699720 29.796499 0.000000 -30.344299 0.000000 6.350250 7.889610 10.507000 19.829901 3.112200 -4.967450 7.099620 30.165100 -13.474500 0.000000 39.904701 0.000000 -3.184580 -14.515400 -19.113501 13.216171 -11.603820 -6.391121 0.000000 0.000000 23.459600 -12.424105 0.088861 13.841897 0.000000 0.000000 -20.888820 9.871019 10.274355 3.132336 0.000000 0.000000 5.921230 13.161504 -23.634907 11.122626 0.000000 0.000000 -12.934150 
-15.538520 9.472977 38.094350 -174.992572 -34.364941 175.184732 7.017099 10.594427 -12.733821 -14.047752 -7.056907 25.670228 0.000000 0.000000 0.000000 41.341640 19.895518 13.020521 20.791254 -22.223083 -79.326969 -24.506800 3.691820 -8.368930 -28.933701 2.737670 29.408600 0.000000 -30.489000 0.000000 6.472920 8.001680 10.831400 19.327600 2.452050 -5.467150 5.389370 30.880501 -15.860700 0.000000 41.282600 0.000000 -2.438930 -13.209400 -18.478001 12.910464 -10.642319 -6.924067 0.000000 0.000000 23.442801 -12.583906 -0.371716 14.626220 0.000000 0.000000 -21.148360 9.383758 10.314435 2.681646 0.000000 0.000000 5.910260 13.132572 -23.680378 11.295234 0.000000 0.000000 -12.918960 
-15.530671 9.483326 38.136110 -175.341424 -34.464467 175.622823 7.512732 11.183520 -12.068520 -15.176470 -7.290971 25.063964 0.000000 0.000000 0.000000 43.775485 19.147280 14.916032 19.676983 -21.700963 -78.136298 -24.111200 3.788540 -7.814940 -28.898300 2.913620 28.851299 0.000000 -30.665701 0.000000 6.691110 8.132610 10.974400 19.336901 1.622480 -5.331000 3.304410 31.670200 -18.578100 0.000000 44.146000 0.000000 -2.655620 -12.324400 -17.066999 12.637232 -9.412728 -7.439137 0.000000 0.000000 23.317801 -13.019883 -1.042564 15.462910 0.000000 0.000000 -21.430350 8.903164 10.342186 2.192641 0.000000 0.000000 5.938030 13.157547 -23.696959 11.489489 0.000000 0.000000 -12.900840 
-15.522360 9.491435 38.174318 -175.664586 -34.657259 176.059283 7.769131 11.429340 -11.602786 -15.795106 -7.517288 24.680385 0.000000 0.000000 0.000000 45.652162 18.445318 16.445366 18.792266 -21.489914 -77.116400 -23.754499 3.888420 -7.471320 -29.215599 3.147710 28.092699 0.000000 -30.779699 0.000000 6.838920 8.158830 11.018700 19.363199 0.868676 -5.358850 1.185220 32.262699 -21.233101 0.000000 47.707802 0.000000 -0.852560 -10.222500 -20.784700 12.402555 -7.930375 -8.024935 0.000000 0.000000 23.282801 -13.600669 -1.991780 16.209003 0.000000 0.000000 -21.632800 8.455396 10.265861 1.759445 0.000000 0.000000 5.866520 13.160191 -23.732265 11.653064 0.000000 0.000000 -12.870190 
-15.516490 9.497620 38.209172 -175.912659 -34.900345 176.438769 7.875514 11.460526 -11.271794 -15.964604 -7.716646 24.395395 0.000000 0.000000 0.000000 47.047149 17.951081 17.823724 18.051703 -21.483115 -76.444245 -23.548500 3.900460 -7.269540 -29.566900 3.509130 27.544500 0.000000 -31.025900 0.000000 7.357450 8.483440 11.170900 19.445299 -0.023362 -5.268360 -0.973664 32.875198 -23.674900 0.000000 52.118698 0.000000 1.060420 -9.200740 -25.830400 12.201218 -6.641971 -8.477070 0.000000 0.000000 23.049500 -14.689301 -2.776642 16.661220 0.000000 0.000000 -21.281770 8.073670 10.186793 1.383168 0.000000 0.000000 5.771190 13.203707 -23.795342 11.769508 0.000000 0.000000 -12.848490 
-15.513523 9.501767 38.240339 -176.052037 -35.136432 176.658451 7.969014 11.360130 -10.969189 -15.905426 -7.942530 24.200582 0.000000 0.000000 0.000000 47.949845 17.749610 19.029980 17.499879 -21.632967 -76.118630 -23.410200 3.961370 -7.040130 -30.015200 3.817380 26.828699 0.000000 -31.293800 0.000000 7.474390 8.698460 11.027300 19.594801 -0.868476 -5.131770 -3.044740 33.428799 -25.686199 0.000000 57.076500 0.000000 2.628750 -8.036210 -30.312000 12.075001 -5.430498 -8.765249 0.000000 0.000000 22.801100 -16.341275 -3.450007 16.804577 0.000000 0.000000 -21.053660 7.804191 10.048187 1.187050 0.000000 0.000000 5.571630 13.210428 -23.847279 11.918522 0.000000 0.000000 -12.826200 
-15.515007 9.504930 38.268177 -176.115794 -35.320432 176.751527 8.147602 11.238114 -10.784693 -15.971715 -8.117358 24.339404 0.000000 0.000000 0.000000 48.426787 17.733577 19.713436 16.941374 -21.677006 -75.590293 -23.106300 4.113410 -7.224410 -30.549601 4.210100 26.421101 0.000000 -31.687201 0.000000 7.520960 8.937410 11.321800 19.793301 -1.577580 -5.046600 -4.786010 33.826401 -27.282400 0.000000 62.415798 0.000000 3.727620 -6.679240 -32.518600 12.002877 -4.450769 -8.852690 0.000000 0.000000 22.529100 -18.036476 -3.983593 16.699685 0.000000 0.000000 -21.720580 7.606524 9.871820 1.120188 0.000000 0.000000 5.337070 13.202930 -23.843816 12.089143 0.000000 0.000000 -12.742230 
-15.518925 9.507249 38.293928 -176.163230 -35.431995 176.790227 8.341942 11.190748 -10.588888 -16.048227 -8.248601 24.422976 0.000000 0.000000 0.000000 48.562879 17.988651 20.267967 16.713430 -21.799127 -75.399322 -22.897200 4.140870 -7.100660 -30.923599 4.484750 25.844601 0.000000 -32.064899 0.000000 7.404130 9.088580 11.907800 19.928101 -2.248020 -5.072770 -5.986440 34.040901 -27.998800 0.000000 67.850601 0.000000 4.335400 -5.062930 -33.700298 11.957298 -3.857730 -8.761698 0.000000 0.000000 22.296700 -19.396490 -4.475643 16.280831 0.000000 0.000000 -24.312380 7.441507 9.875071 1.101187 0.000000 0.000000 5.141040 13.205354 -23.944270 12.226405 0.000000 0.000000 -12.703200 
-15.525103 9.509741 38.316784 -176.257297 -35.477188 176.840597 8.461570 11.167656 -10.481959 -16.180721 -8.299667 24.591431 0.000000 0.000000 0.000000 48.476611 18.252627 20.495186 16.450546 -21.891836 -75.217292 -22.734900 4.209430 -7.002790 -31.060200 4.638590 25.818199 0.000000 -32.549301 0.000000 7.346510 9.259240 12.025500 20.294399 -2.485540 -4.530980 -7.563650 33.537201 -28.691000 0.000000 73.489700 0.000000 4.644510 -3.698220 -34.291500 11.873780 -3.414505 -8.536046 0.000000 0.000000 22.164301 -18.600115 -4.418094 15.670722 0.000000 0.000000 -24.665340 7.250441 9.935997 1.105361 0.000000 0.000000 4.971670 13.251791 -24.043936 12.301958 0.000000 0.000000 -12.635030 
-15.531728 9.511465 38.336446 -176.308256 -35.502059 176.901585 8.466278 11.137133 -10.459531 -16.188088 -8.291386 24.707650 0.000000 0.000000 0.000000 48.305444 18.446274 20.532581 16.145856 -21.952752 -75.137139 -22.632200 4.291350 -7.125830 -31.176800 4.738850 25.958700 0.000000 -32.851002 0.000000 7.239680 9.325750 12.343400 20.474199 -2.678020 -4.316970 -8.252590 32.896500 -28.362200 0.000000 79.101898 0.000000 4.826720 -2.561430 -34.940800 11.865038 -3.312463 -8.267499 0.000000 0.000000 22.208799 -17.002347 -3.402436 14.733607 0.000000 0.000000 -24.970340 7.100564 9.962319 1.056898 0.000000 0.000000 4.865640 13.254937 -24.108330 12.375747 0.000000 0.000000 -12.570450 
-15.539417 9.511898 38.353038 -176.299710 -35.516545 176.940708 8.384673 11.119545 -10.534255 -16.072629 -8.204095 24.797715 0.000000 0.000000 0.000000 47.975850 18.660356 20.403891 16.074898 -22.080439 -75.226982 -22.560499 4.268460 -7.348120 -31.216900 4.835440 26.381399 0.000000 -33.075298 0.000000 7.091230 9.339250 12.404400 20.639999 -2.727560 -4.157930 -8.524390 31.894100 -27.392700 0.000000 84.689598 0.000000 5.185870 -1.663680 -35.254501 11.936847 -3.391879 -7.970804 0.000000 0.000000 22.444901 -15.766829 -1.863832 13.719300 0.000000 0.000000 -24.788880 7.008987 10.001448 0.986170 0.000000 0.000000 4.811070 13.243807 -24.185931 12.430712 0.000000 0.000000 -12.551630 
